<svg xmlns="http://www.w3.org/2000/svg" width="2500" height="903" viewBox="0 0 150 54.184"><path d="M15.823 35.821V18.498c0-2.135.364-3.727 1.092-4.778.729-1.05 1.83-1.575 3.307-1.575.857 0 1.635.237 2.337.708.702.471 1.325 1.189 1.871 2.15.911-.98 1.94-1.7 3.088-2.163 1.149-.463 2.47-.695 3.963-.695 1.895 0 3.57.338 5.028 1.015 1.458.676 2.715 1.691 3.771 3.044 1.33-1.441 2.688-2.48 4.072-3.111 1.385-.63 2.988-.948 4.81-.948 3.152 0 5.602.989 7.35 2.964 1.75 1.975 2.623 4.76 2.623 8.354v12.359c0 2.118-.364 3.693-1.092 4.725-.729 1.032-1.84 1.548-3.334 1.548s-2.596-.512-3.307-1.535c-.711-1.023-1.066-2.602-1.066-4.738V26.08c0-2.26-.324-3.915-.97-4.965-.647-1.05-1.662-1.575-3.048-1.575-1.53 0-2.65.518-3.36 1.549-.71 1.032-1.066 2.66-1.066 4.884v9.85c0 2.117-.364 3.692-1.093 4.725-.73 1.032-1.84 1.548-3.334 1.548-1.495 0-2.606-.516-3.334-1.548-.73-1.033-1.094-2.608-1.094-4.725V26.08c0-2.278-.319-3.938-.956-4.98-.638-1.04-1.64-1.56-3.006-1.56-1.53 0-2.65.517-3.361 1.548-.71 1.032-1.066 2.66-1.066 4.884v9.85c0 2.117-.365 3.692-1.093 4.725-.729 1.032-1.84 1.548-3.334 1.548s-2.6-.516-3.32-1.548c-.719-1.034-1.078-2.61-1.078-4.727zM84.031 38.116c-.964 1.353-2.113 2.363-3.443 3.03-1.33.667-2.85 1-4.562 1-3.572 0-6.592-1.432-9.06-4.297-2.47-2.865-3.703-6.424-3.703-10.678 0-4.288 1.33-7.9 3.989-10.836 2.66-2.935 5.903-4.404 9.728-4.405 1.494 0 2.82.25 3.976.749 1.158.498 2.182 1.273 3.074 2.322.475-.855 1.062-1.527 1.764-2.015.7-.49 1.416-.735 2.145-.735 1.511 0 2.627.512 3.348 1.535.718 1.023 1.08 2.594 1.08 4.711V35.82c0 3.185-.16 5.672-.478 7.46-.32 1.788-.852 3.27-1.6 4.445-1.292 2.117-3.074 3.723-5.341 4.817-2.268 1.095-4.96 1.642-8.077 1.642-3.807 0-6.913-.596-9.318-1.788-2.405-1.193-3.607-2.696-3.607-4.511 0-1.086.36-1.985 1.08-2.697.719-.71 1.625-1.067 2.718-1.067.529 0 1.8.383 3.812 1.147 2.014.766 3.895 1.148 5.643 1.148 2.188 0 3.881-.632 5.084-1.895 1.201-1.264 1.802-3.052 1.802-5.365 0-.107-.009-.275-.027-.507a7.516 7.516 0 0 1-.027-.533zM72.39 27.172c0 2.153.537 3.898 1.612 5.231 1.075 1.335 2.46 2.002 4.154 2.002s3.088-.671 4.18-2.014c1.092-1.344 1.64-3.083 1.64-5.219 0-2.082-.548-3.776-1.64-5.084-1.092-1.308-2.487-1.962-4.18-1.962s-3.08.654-4.154 1.962c-1.075 1.308-1.612 3.002-1.612 5.084zM98.269 29.975V18.498c0-2.118.363-3.687 1.092-4.711.73-1.024 1.841-1.535 3.334-1.535 1.476 0 2.574.511 3.293 1.535.72 1.023 1.08 2.593 1.08 4.711v9.716c0 2.296.355 3.92 1.066 4.87.711.953 1.867 1.429 3.471 1.429s2.76-.476 3.471-1.429c.71-.952 1.065-2.575 1.065-4.87v-9.716c0-2.118.36-3.687 1.08-4.711s1.836-1.535 3.348-1.535c1.475 0 2.568.508 3.279 1.521.711 1.015 1.066 2.59 1.066 4.725v11.477c0 4.094-1.139 7.22-3.416 9.382s-5.576 3.243-9.892 3.243c-4.318 0-7.62-1.08-9.906-3.243-2.288-2.162-3.431-5.29-3.431-9.382zM130.925 35.821V18.498c0-2.118.36-3.687 1.08-4.711.72-1.024 1.826-1.535 3.32-1.535.893 0 1.684.227 2.377.68.692.455 1.303 1.144 1.83 2.07.913-.96 1.877-1.687 2.897-2.176 1.022-.489 2.05-.734 3.088-.734 1.221 0 2.273.422 3.156 1.268.885.845 1.326 1.845 1.326 3.002 0 1.725-1.62 3.168-4.864 4.324-1.166.41-2.04.748-2.624 1.015-1.111.516-1.848 1.09-2.213 1.721-.365.632-.547 1.776-.547 3.43v8.968c0 2.118-.364 3.693-1.092 4.725-.73 1.033-1.841 1.548-3.334 1.548-1.494 0-2.6-.515-3.32-1.548-.72-1.031-1.08-2.607-1.08-4.724zM9.456 35.821c0 2.135-.356 3.715-1.067 4.738-.71 1.023-1.803 1.535-3.279 1.535-1.494 0-2.605-.517-3.334-1.548-.729-1.032-1.093-2.607-1.093-4.725V18.498c0-2.118.36-3.687 1.08-4.711.719-1.024 1.834-1.535 3.347-1.535 1.476 0 2.569.511 3.28 1.535s1.066 2.593 1.066 4.711v17.323z"/><path d="M0 4.992c0-1.37.5-2.544 1.502-3.523S3.707.001 5.11.001c1.384 0 2.57.49 3.552 1.468.985.979 1.476 2.153 1.476 3.523 0 1.388-.488 2.563-1.462 3.524-.975.96-2.163 1.44-3.566 1.44-1.439 0-2.65-.48-3.634-1.44C.492 7.554 0 6.38 0 4.992z" fill="#89c623"/></svg>