<?xml version="1.0" encoding="UTF-8" standalone="no"?>
<svg
   xmlns:dc="http://purl.org/dc/elements/1.1/"
   xmlns:cc="http://creativecommons.org/ns#"
   xmlns:rdf="http://www.w3.org/1999/02/22-rdf-syntax-ns#"
   xmlns:svg="http://www.w3.org/2000/svg"
   xmlns="http://www.w3.org/2000/svg"
   xmlns:sodipodi="http://sodipodi.sourceforge.net/DTD/sodipodi-0.dtd"
   xmlns:inkscape="http://www.inkscape.org/namespaces/inkscape"
   id="Layer_1"
   viewBox="0 0 174 34"
   version="1.1"
   inkscape:version="0.91 r13725"
   sodipodi:docname="pandora.svg"
   width="174"
   height="34">
  <metadata
     id="metadata21">
    <rdf:RDF>
      <cc:Work
         rdf:about="">
        <dc:format>image/svg+xml</dc:format>
        <dc:type
           rdf:resource="http://purl.org/dc/dcmitype/StillImage" />
        <dc:title>ico-p1mdplogo</dc:title>
      </cc:Work>
    </rdf:RDF>
  </metadata>
  <defs
     id="defs19">
    <linearGradient
       gradientTransform="matrix(28.934,0,0,12.2,16088.352,-572.1)"
       y2="47.437"
       x2="-546.97803"
       y1="48.742001"
       x1="-548.28302"
       gradientUnits="userSpaceOnUse"
       id="plus_1_">
      <stop
         id="stop12"
         stop-color="#00A0EE"
         offset="0" />
      <stop
         id="stop14"
         stop-color="#386AFF"
         offset="1" />
    </linearGradient>
  </defs>
  <sodipodi:namedview
     pagecolor="#ffffff"
     bordercolor="#666666"
     borderopacity="1"
     objecttolerance="10"
     gridtolerance="10"
     guidetolerance="10"
     inkscape:pageopacity="0"
     inkscape:pageshadow="2"
     inkscape:window-width="1864"
     inkscape:window-height="1155"
     id="namedview17"
     showgrid="false"
     inkscape:zoom="2.0529801"
     inkscape:cx="131.18634"
     inkscape:cy="31.904402"
     inkscape:window-x="56"
     inkscape:window-y="1"
     inkscape:window-maximized="1"
     inkscape:current-layer="Layer_1" />
  <style
     id="style3">.st0{fill:#00ADEE;} .st1{fill:url(#plus_1_);}</style>
  <title
     id="title5">ico-p1mdplogo</title>
  <path
     style="fill:#00adee"
     inkscape:connector-curvature="0"
     d="m 118.5,5.9 c -6.1,0 -11.1,4.9 -11.1,11.1 0,6.1 5,11.1 11.1,11.1 6.1,0 11.1,-5 11.1,-11.1 0,-6.1 -5,-11.1 -11.1,-11.1 z M 50,8.4 C 48.1,6.8 45.7,5.9 43,5.9 c -6.1,0 -11.1,5 -11.1,11.1 0,6.1 5,11.1 11.1,11.1 2.7,0 5.1,-0.9 7,-2.5 l 0,1.8 4.1,0 0,-20.8 -4.1,0 0,1.8 z m 112.6,0 c -1.9,-1.6 -4.3,-2.5 -7,-2.5 -6.1,0 -11.1,5 -11.1,11.1 0,6.1 4.9,11.1 11.1,11.1 2.7,0 5.1,-0.9 7,-2.5 l 0,1.8 4.1,0 0,-20.8 -4.1,0 0,1.8 z M 136.8,7.9 c -2.4,1.5 -4.4,4.2 -4.4,9 l 0,10.5 4.4,0 0,-10.5 c 0,-6.9 7.1,-6.5 7.1,-6.5 l 0,-4.4 c 0,0 -3.8,-0.1 -7.1,1.9 z M 75,8.2 C 73.2,6.8 70.9,6 68.4,6 c -2.5,0 -4.8,0.8 -6.6,2.2 -2.7,2 -4.4,5.2 -4.4,8.8 l 0,10.4 4.4,0 0,-10.4 c 0,-3.7 3,-6.6 6.6,-6.6 3.7,0 6.6,3 6.6,6.6 l 0,10.3 4.5,0 0,-10.3 c 0,-3.6 -1.8,-6.8 -4.5,-8.8 z m 25.5,-6.2 0,6.4 c -1.9,-1.6 -4.3,-2.5 -7,-2.5 -6.1,0 -11.1,5 -11.1,11.1 0,6.1 5,11.1 11.1,11.1 2.7,0 5.1,-0.9 7,-2.5 l 0,1.8 4,0 0,-27.4 -2,0 c -1.1,0 -2,0.9 -2,2 z M 18.3,5.9 c -2.7,0 -5.1,0.9 -7,2.5 l 0,-1.8 -4,0 0,27.4 2,0 c 1.1,0 2,-0.9 2,-2 l 0,-6.4 c 1.9,1.6 4.3,2.5 7,2.5 6.1,0 11.1,-5 11.1,-11.1 0,-6.1 -5,-11.1 -11.1,-11.1 z m 100.2,17.7 c -3.7,0 -6.6,-3 -6.6,-6.6 0,-3.7 3,-6.6 6.6,-6.6 3.7,0 6.6,3 6.6,6.6 0.1,3.7 -2.9,6.6 -6.6,6.6 z m -75.3,0.3 c -3.8,0 -6.9,-3.1 -6.9,-6.9 0,-3.8 3.1,-6.9 6.9,-6.9 3.8,0 6.9,3.1 6.9,6.9 0,3.8 -3.1,6.9 -6.9,6.9 z m 112.6,0 c -3.8,0 -6.9,-3.1 -6.9,-6.9 0,-3.8 3.1,-6.9 6.9,-6.9 3.8,0 6.9,3.1 6.9,6.9 0,3.8 -3.1,6.9 -6.9,6.9 z m -62.1,0 c -3.8,0 -6.9,-3.1 -6.9,-6.9 0,-3.8 3.1,-6.9 6.9,-6.9 3.8,0 6.9,3.1 6.9,6.9 0,3.8 -3.1,6.9 -6.9,6.9 z m -75.6,0 c -3.8,0 -6.9,-3.1 -6.9,-6.9 0,-3.8 3.1,-6.9 6.9,-6.9 3.8,0 6.9,3.1 6.9,6.9 0,3.8 -3.1,6.9 -6.9,6.9 z"
     class="st0"
     id="pandora" />
</svg>
