<?xml version="1.0" encoding="UTF-8" standalone="no"?>
<!-- Created with Inkscape (http://www.inkscape.org/) -->

<svg
   xmlns:dc="http://purl.org/dc/elements/1.1/"
   xmlns:cc="http://creativecommons.org/ns#"
   xmlns:rdf="http://www.w3.org/1999/02/22-rdf-syntax-ns#"
   xmlns:svg="http://www.w3.org/2000/svg"
   xmlns="http://www.w3.org/2000/svg"
   xmlns:sodipodi="http://sodipodi.sourceforge.net/DTD/sodipodi-0.dtd"
   xmlns:inkscape="http://www.inkscape.org/namespaces/inkscape"
   id="svg2985"
   version="1.1"
   inkscape:version="0.48.2 r9819"
   width="1000"
   height="417.80829"
   xml:space="preserve"
   sodipodi:docname="YouTube-logo-full_color.pdf"><metadata
     id="metadata2991"><rdf:RDF><cc:Work
         rdf:about=""><dc:format>image/svg+xml</dc:format><dc:type
           rdf:resource="http://purl.org/dc/dcmitype/StillImage" /><dc:title></dc:title></cc:Work></rdf:RDF></metadata><defs
     id="defs2989"><clipPath
       clipPathUnits="userSpaceOnUse"
       id="clipPath3001"><path
         d="M 0,0 0,871 2088,871 2088,0 0,0 z"
         id="path3003"
         inkscape:connector-curvature="0" /></clipPath><clipPath
       clipPathUnits="userSpaceOnUse"
       id="clipPath3007"><path
         d="m 2075.17,683.223 c 0,0 -12.16,85.351 -49.46,122.941 -47.31,49.328 -100.35,49.578 -124.67,52.461 -174.1,12.527 -435.27,12.527 -435.27,12.527 l -0.54,0 c 0,0 -261.18,0 -435.28,-12.527 -24.32,-2.883 -77.345,-3.133 -124.665,-52.461 -37.308,-37.59 -49.453,-122.941 -49.453,-122.941 0,0 -12.441,-100.231 -12.441,-200.469 l 0,-93.969 c 0,-100.226 12.441,-200.457 12.441,-200.457 0,0 12.145,-85.348 49.453,-122.9413 C 952.605,16.0469 1014.79,17.6172 1042.47,12.4492 1142.01,2.9375 1465.5,0 1465.5,0 c 0,0 261.44,0.390625 435.54,12.9141 24.32,2.8906 77.36,3.1328 124.67,52.4726 37.3,37.5933 49.46,122.9413 49.46,122.9413 0,0 12.43,100.231 12.43,200.457 l 0,93.969 c 0,100.238 -12.43,200.469 -12.43,200.469 z"
         id="path3009"
         inkscape:connector-curvature="0" /></clipPath><linearGradient
       x1="0"
       y1="0"
       x2="1"
       y2="0"
       gradientUnits="userSpaceOnUse"
       gradientTransform="matrix(0,-209.078,-209.078,0,351.719,209.077)"
       spreadMethod="pad"
       id="linearGradient3011"><stop
         style="stop-opacity:1;stop-color:#e42526"
         offset="0"
         id="stop3013" /><stop
         style="stop-opacity:1;stop-color:#be1f26"
         offset="1"
         id="stop3015" /></linearGradient></defs><sodipodi:namedview
     pagecolor="#ffffff"
     bordercolor="#666666"
     borderopacity="1"
     objecttolerance="10"
     gridtolerance="10"
     guidetolerance="10"
     inkscape:pageopacity="0"
     inkscape:pageshadow="2"
     inkscape:window-width="1920"
     inkscape:window-height="1028"
     id="namedview2987"
     showgrid="false"
     fit-margin-left="0.5"
     fit-margin-top="0.5"
     fit-margin-bottom="0.5"
     fit-margin-right="0.5"
     inkscape:zoom="0.50525771"
     inkscape:cx="905.72744"
     inkscape:cy="139.80012"
     inkscape:window-x="-8"
     inkscape:window-y="-8"
     inkscape:window-maximized="1"
     inkscape:current-layer="g2993" /><g
     id="g2993"
     inkscape:groupmode="layer"
     inkscape:label="YouTube-logo-full_color"
     transform="matrix(1.25,0,0,-1.25,-58.278885,355.73042)"><g
       id="g2995"
       transform="matrix(0.38283196,0,0,0.38283196,47.023108,-49.262304)"><g
         id="g2997"><g
           id="g2999"
           clip-path="url(#clipPath3001)"><g
             id="g3005"
             clip-path="url(#clipPath3007)"><path
               d="m 1385,0 0,1 -60,0 0,1 -50,0 0,1 -42,0 0,1 -37,0 0,1 -31,0 0,1 -28,0 0,1 -24,0 0,1 -20,0 0,1 -18,0 0,1 -15,0 0,1 -12,0 0,1 -9,0 0,1 -8,0 0,1 -8,0 0,1 -8,0 0,1 -7,0 0,1 -6,0 0,1 -6,0 0,1 -5,0 0,1 -4,0 0,1 -5,0 0,1 -4,0 0,1 -3,0 0,1 -4,0 0,1 -3,0 0,1 -2,0 0,1 -3,0 0,1 -3,0 0,1 -2,0 0,1 -3,0 0,1 -2,0 0,1 -2,0 0,1 -3,0 0,1 -2,0 0,1 -2,0 0,1 -2,0 0,1 -1,0 0,1 -2,0 0,1 -2,0 0,1 -2,0 0,1 -1,0 0,1 -2,0 0,1 -1,0 0,1 -2,0 0,1 -1,0 0,1 -2,0 0,1 -1,0 0,1 -2,0 0,1 -1,0 0,1 -1,0 0,1 -1,0 0,1 -2,0 0,1 -1,0 0,1 -1,0 0,1 -1,0 0,1 -1,0 0,1 -2,0 0,1 -1,0 0,1 -1,0 0,1 -1,0 0,1 -1,0 0,1 -1,0 0,1 -1,0 0,1 -1,0 0,1 -1,0 0,1 -1,0 0,1 -1,0 0,2 -1,0 0,1 -1,0 0,1 -1,0 0,1 -1,0 0,1 -1,0 0,2 -1,0 0,1 -1,0 0,1 -1,0 0,2 -1,0 0,1 -1,0 0,2 -1,0 0,1 -1,0 0,2 -1,0 0,2 -1,0 0,1 -1,0 0,2 -1,0 0,2 -1,0 0,2 -1,0 0,2 -1,0 0,2 -1,0 0,2 -1,0 0,2 -1,0 0,2 -1,0 0,2 -1,0 0,2 -1,0 0,3 -1,0 0,2 -1,0 0,3 -1,0 0,2 -1,0 0,3 -1,0 0,3 -1,0 0,3 -1,0 0,3 -1,0 0,3 -1,0 0,3 -1,0 0,3 -1,0 0,3 -1,0 0,4 -1,0 0,4 -1,0 0,4 -1,0 0,3 -1,0 0,5 -1,0 0,4 -1,0 0,5 -1,0 0,5 -1,0 0,5 -1,0 0,6 -1,0 0,8 -1,0 0,9 -1,0 0,10 -1,0 0,10 -1,0 0,11 -1,0 0,11 -1,0 0,12 -1,0 0,13 -1,0 0,15 -1,0 0,16 -1,0 0,20 -1,0 0,27 -1,0 0,174 1,0 0,26 1,0 0,20 1,0 0,17 1,0 0,14 1,0 0,13 1,0 0,13 1,0 0,11 1,0 0,11 1,0 0,10 1,0 0,9 1,0 0,10 1,0 0,8 1,0 0,6 1,0 0,5 1,0 0,5 1,0 0,5 1,0 0,4 1,0 0,4 1,0 0,4 1,0 0,4 1,0 0,4 1,0 0,3 1,0 0,3 1,0 0,4 1,0 0,3 1,0 0,3 1,0 0,3 1,0 0,3 1,0 0,3 1,0 0,2 1,0 0,3 1,0 0,2 1,0 0,3 1,0 0,2 1,0 0,2 1,0 0,3 1,0 0,2 1,0 0,2 1,0 0,2 1,0 0,2 1,0 0,2 1,0 0,2 1,0 0,2 1,0 0,1 1,0 0,2 1,0 0,2 1,0 0,1 1,0 0,2 1,0 0,1 1,0 0,2 1,0 0,1 1,0 0,2 1,0 0,1 1,0 0,1 1,0 0,2 1,0 0,1 1,0 0,1 1,0 0,1 1,0 0,1 1,0 0,1 1,0 0,1 1,0 0,1 1,0 0,1 1,0 0,1 1,0 0,1 1,0 0,1 1,0 0,1 1,0 0,1 1,0 0,1 1,0 0,1 2,0 0,1 1,0 0,1 1,0 0,1 1,0 0,1 1,0 0,1 1,0 0,1 1,0 0,1 1,0 0,1 2,0 0,1 1,0 0,1 1,0 0,1 2,0 0,1 1,0 0,1 2,0 0,1 1,0 0,1 2,0 0,1 1,0 0,1 2,0 0,1 1,0 0,1 2,0 0,1 1,0 0,1 2,0 0,1 2,0 0,1 2,0 0,1 2,0 0,1 2,0 0,1 2,0 0,1 2,0 0,1 2,0 0,1 3,0 0,1 2,0 0,1 3,0 0,1 3,0 0,1 3,0 0,1 2,0 0,1 4,0 0,1 4,0 0,1 4,0 0,1 4,0 0,1 4,0 0,1 6,0 0,1 6,0 0,1 9,0 0,1 9,0 0,1 12,0 0,1 15,0 0,1 16,0 0,1 18,0 0,1 19,0 0,1 22,0 0,1 24,0 0,1 26,0 0,1 30,0 0,1 35,0 0,1 43,0 0,1 55,0 0,1 255,0 0,-1 55,0 0,-1 43,0 0,-1 35,0 0,-1 30,0 0,-1 26,0 0,-1 24,0 0,-1 22,0 0,-1 19,0 0,-1 18,0 0,-1 16,0 0,-1 15,0 0,-1 12,0 0,-1 9,0 0,-1 9,0 0,-1 6,0 0,-1 6,0 0,-1 4,0 0,-1 4,0 0,-1 4,0 0,-1 4,0 0,-1 4,0 0,-1 2,0 0,-1 3,0 0,-1 3,0 0,-1 3,0 0,-1 2,0 0,-1 3,0 0,-1 2,0 0,-1 2,0 0,-1 2,0 0,-1 2,0 0,-1 2,0 0,-1 2,0 0,-1 2,0 0,-1 2,0 0,-1 1,0 0,-1 2,0 0,-1 1,0 0,-1 2,0 0,-1 1,0 0,-1 2,0 0,-1 1,0 0,-1 2,0 0,-1 1,0 0,-1 2,0 0,-1 1,0 0,-1 1,0 0,-1 2,0 0,-1 1,0 0,-1 1,0 0,-1 1,0 0,-1 1,0 0,-1 1,0 0,-1 1,0 0,-1 1,0 0,-1 2,0 0,-1 1,0 0,-1 1,0 0,-1 1,0 0,-1 1,0 0,-1 1,0 0,-1 1,0 0,-1 1,0 0,-1 1,0 0,-1 1,0 0,-1 1,0 0,-1 1,0 0,-1 1,0 0,-1 1,0 0,-1 1,0 0,-1 1,0 0,-2 1,0 0,-1 1,0 0,-2 1,0 0,-1 1,0 0,-1 1,0 0,-2 1,0 0,-1 1,0 0,-2 1,0 0,-1 1,0 0,-2 1,0 0,-2 1,0 0,-1 1,0 0,-2 1,0 0,-2 1,0 0,-2 1,0 0,-2 1,0 0,-2 1,0 0,-2 1,0 0,-2 1,0 0,-3 1,0 0,-2 1,0 0,-2 1,0 0,-3 1,0 0,-2 1,0 0,-3 1,0 0,-2 1,0 0,-3 1,0 0,-3 1,0 0,-3 1,0 0,-3 1,0 0,-3 1,0 0,-4 1,0 0,-3 1,0 0,-3 1,0 0,-4 1,0 0,-4 1,0 0,-4 1,0 0,-4 1,0 0,-4 1,0 0,-5 1,0 0,-5 1,0 0,-5 1,0 0,-6 1,0 0,-8 1,0 0,-9 1,0 0,-10 1,0 0,-10 1,0 0,-11 1,0 0,-11 1,0 0,-13 1,0 0,-13 1,0 0,-15 1,0 0,-16 1,0 0,-20 1,0 0,-26 1,0 0,-174 -1,0 0,-27 -1,0 0,-19 -1,0 0,-17 -1,0 0,-14 -1,0 0,-14 -1,0 0,-12 -1,0 0,-11 -1,0 0,-11 -1,0 0,-10 -1,0 0,-10 -1,0 0,-9 -1,0 0,-8 -1,0 0,-6 -1,0 0,-5 -1,0 0,-5 -1,0 0,-5 -1,0 0,-4 -1,0 0,-5 -1,0 0,-3 -1,0 0,-4 -1,0 0,-4 -1,0 0,-4 -1,0 0,-3 -1,0 0,-3 -1,0 0,-3 -1,0 0,-3 -1,0 0,-3 -1,0 0,-3 -1,0 0,-3 -1,0 0,-3 -1,0 0,-2 -1,0 0,-3 -1,0 0,-2 -1,0 0,-3 -1,0 0,-2 -1,0 0,-2 -1,0 0,-2 -1,0 0,-2 -1,0 0,-2 -1,0 0,-2 -1,0 0,-2 -1,0 0,-2 -1,0 0,-2 -1,0 0,-2 -1,0 0,-1 -1,0 0,-2 -1,0 0,-2 -1,0 0,-1 -1,0 0,-2 -1,0 0,-1 -1,0 0,-2 -1,0 0,-1 -1,0 0,-1 -1,0 0,-2 -1,0 0,-1 -1,0 0,-1 -1,0 0,-1 -1,0 0,-1 -1,0 0,-2 -1,0 0,-1 -1,0 0,-1 -1,0 0,-1 -1,0 0,-1 -1,0 0,-1 -2,0 0,-1 -1,0 0,-1 -1,0 0,-1 -1,0 0,-1 -1,0 0,-1 -1,0 0,-1 -1,0 0,-1 -1,0 0,-1 -1,0 0,-1 -1,0 0,-1 -2,0 0,-1 -1,0 0,-1 -1,0 0,-1 -1,0 0,-1 -1,0 0,-1 -2,0 0,-1 -1,0 0,-1 -2,0 0,-1 -1,0 0,-1 -2,0 0,-1 -1,0 0,-1 -2,0 0,-1 -1,0 0,-1 -2,0 0,-1 -1,0 0,-1 -1,0 0,-1 -2,0 0,-1 -2,0 0,-1 -2,0 0,-1 -2,0 0,-1 -2,0 0,-1 -2,0 0,-1 -2,0 0,-1 -2,0 0,-1 -2,0 0,-1 -3,0 0,-1 -3,0 0,-1 -3,0 0,-1 -2,0 0,-1 -3,0 0,-1 -3,0 0,-1 -4,0 0,-1 -4,0 0,-1 -4,0 0,-1 -4,0 0,-1 -6,0 0,-1 -6,0 0,-1 -7,0 0,-1 -9,0 0,-1 -10,0 0,-1 -14,0 0,-1 -16,0 0,-1 -17,0 0,-1 -18,0 0,-1 -21,0 0,-1 -21,0 0,-1 -25,0 0,-1 -28,0 0,-1 -31,0 0,-1 -37,0 0,-1 -44,0 0,-1 -57,0 0,-1"
               style="fill:url(#linearGradient3011);fill-opacity:1;fill-rule:nonzero;stroke:none"
               id="path3017"
               inkscape:connector-curvature="0" /></g></g></g><path
         d="m 779.168,166.172 -79.168,0 0,45.832 c -30.012,-34.399 -55.453,-51.774 -83.187,-51.774 -24.333,0 -41.231,11.477 -49.692,32.215 -5.141,12.614 -8.789,32.301 -8.789,61.227 l 0,333.332 79.168,0 0,-312.5 c 0,-17.676 0,-25 0,-29.168 1.848,-11.695 6.813,-15.965 16.879,-15.965 15.156,0 28.867,13.168 45.621,36.801 l 0,320.832 79.168,0 0,-420.832"
         style="fill:#100f0d;fill-opacity:1;fill-rule:nonzero;stroke:none"
         id="path3019"
         inkscape:connector-curvature="0" /><path
         d="m 420.832,291.172 c 4.168,-41.668 -8.754,-62.344 -33.34,-62.344 -24.582,0 -37.492,20.676 -33.324,62.344 l 0,166.664 c -4.168,41.668 8.75,61.195 33.332,61.195 24.582,0 37.543,-19.527 33.375,-61.195 L 420.832,291.172 z M 500,449.504 c 0,44.973 -9.035,78.742 -25,100 -21.09,28.781 -54.168,40.566 -87.5,40.566 -37.73,0 -66.441,-11.785 -87.5,-40.566 -16.223,-21.258 -24.922,-55.395 -24.922,-100.367 L 275,299.504 c 0,-44.719 7.738,-75.621 23.961,-96.672 21.059,-28.695 55.207,-43.898 88.539,-43.898 33.332,0 68.078,15.203 89.168,43.898 15.965,21.051 23.332,51.953 23.332,96.672 l 0,150"
         style="fill:#100f0d;fill-opacity:1;fill-rule:nonzero;stroke:none"
         id="path3021"
         inkscape:connector-curvature="0" /><path
         d="m 187.5,395.336 0,-229.164 -83.332,0 0,229.164 c 0,0 -86.3555,280.965 -104.168,333.332 l 87.5,0 58.477,-219.48 58.191,219.48 87.5,0 L 187.5,395.336"
         style="fill:#100f0d;fill-opacity:1;fill-rule:nonzero;stroke:none"
         id="path3023"
         inkscape:connector-curvature="0" /><path
         d="m 1833.33,470.508 c 0,38.941 10.68,49.562 35.87,49.562 25.01,0 34.97,-11.57 34.97,-50.082 l 0,-45.484 -70.84,-0.078 0,46.082 z m 150.15,-108.504 -0.02,85.18 c 0,44.5 -8.76,77.05 -24.53,98.113 -21.14,28.492 -51.18,43.57 -89.03,43.57 -38.51,0 -68.54,-15.078 -90.36,-43.57 -16.02,-21.063 -25.37,-55.461 -25.37,-99.961 l 0,-145.832 c 0,-44.246 10.28,-75.219 26.3,-96.055 21.81,-28.449 51.85,-42.648 91.31,-42.648 39.41,0 70.36,14.898 91.23,45.133 9.17,13.343 15.1,28.476 17.64,45.195 0.68,7.555 2.68,24.758 2.68,49.066 l 0,11.809 -79.16,0 c 0,-30.266 0.13,-48.258 -0.56,-52.371 -4.31,-20.16 -15.13,-30.262 -33.71,-30.262 -25.89,0 -36.83,19.359 -36.57,57.809 l 0,74.824 150.15,0"
         style="fill:#ffffff;fill-opacity:1;fill-rule:nonzero;stroke:none"
         id="path3025"
         inkscape:connector-curvature="0" /><path
         d="m 1625,287.004 c 0,-41.668 -9.82,-57.633 -31.57,-57.633 -12.43,0 -26.73,6.391 -39.35,19.004 l 0.09,252.691 c 12.61,12.45 26.83,19.004 39.26,19.004 21.75,0 31.57,-12.234 31.57,-53.902 l 0,-179.164 z m 8.78,302.516 c -27.75,0 -55.33,-17.067 -79.7,-47.047 l 0.09,182.031 -75,0 0,-558.332 75,0 0.1,41.949 c 25.21,-31.183 52.69,-47.32 79.51,-47.32 30.04,0 51.99,16.078 62.05,47.035 5.04,17.652 8.34,44.828 8.34,83.336 l 0,166.664 c 0,39.437 -5.06,66.398 -10.1,83.148 -10.06,31.184 -30.25,48.536 -60.29,48.536"
         style="fill:#ffffff;fill-opacity:1;fill-rule:nonzero;stroke:none"
         id="path3027"
         inkscape:connector-curvature="0" /><path
         d="m 1416.67,166.172 -79.17,0 0,45.832 c -30.01,-34.399 -55.45,-51.774 -83.19,-51.774 -24.33,0 -41.23,11.477 -49.69,32.215 -5.14,12.614 -8.79,32.301 -8.79,61.227 l 0,329.164 79.17,0 0,-308.332 c 0,-17.676 0,-25 0,-29.168 1.85,-11.695 6.81,-15.965 16.88,-15.965 15.16,0 28.87,13.168 45.62,36.801 l 0,316.664 79.17,0 0,-416.664"
         style="fill:#ffffff;fill-opacity:1;fill-rule:nonzero;stroke:none"
         id="path3029"
         inkscape:connector-curvature="0" /><path
         d="m 1116.67,166.172 -83.34,0 0,479.164 -87.498,0 0,79.078 262.498,0.09 0,-79.168 -91.66,0 0,-479.164"
         style="fill:#ffffff;fill-opacity:1;fill-rule:nonzero;stroke:none"
         id="path3031"
         inkscape:connector-curvature="0" /></g></g></svg>